<?xml version="1.0" encoding="UTF-8" standalone="no"?>
<svg
   xmlns:dc="http://purl.org/dc/elements/1.1/"
   xmlns:cc="http://creativecommons.org/ns#"
   xmlns:rdf="http://www.w3.org/1999/02/22-rdf-syntax-ns#"
   xmlns:svg="http://www.w3.org/2000/svg"
   xmlns="http://www.w3.org/2000/svg"
   id="svg881"
   version="1.1"
   viewBox="0 0 16 16"
   class="bi bi-door-open-fill"
   fill="currentColor"
   height="16"
   width="16">
  <metadata
     id="metadata887">
    <rdf:RDF>
      <cc:Work
         rdf:about="">
        <dc:format>image/svg+xml</dc:format>
        <dc:type
           rdf:resource="http://purl.org/dc/dcmitype/StillImage" />
        <dc:title></dc:title>
      </cc:Work>
    </rdf:RDF>
  </metadata>
  <defs
     id="defs885" />
  <path
     style="fill:#ffffff;fill-opacity:1"
     id="path879"
     d="M1.5 15a.5.5 0 0 0 0 1h13a.5.5 0 0 0 0-1H13V2.5A1.5 1.5 0 0 0 11.5 1H11V.5a.5.5 0 0 0-.57-.495l-7 1A.5.5 0 0 0 3 1.5V15H1.5zM11 2h.5a.5.5 0 0 1 .5.5V15h-1V2zm-2.5 8c-.276 0-.5-.448-.5-1s.224-1 .5-1 .5.448.5 1-.224 1-.5 1z" />
</svg>
